<?xml version="1.0" encoding="utf-8"?>
<!-- Generator: Adobe Illustrator 26.0.3, SVG Export Plug-In . SVG Version: 6.00 Build 0)  -->
<svg version="1.0"
	 id="svg8" xmlns:cc="http://creativecommons.org/ns#" xmlns:dc="http://purl.org/dc/elements/1.1/" xmlns:osb="http://www.openswatchbook.org/uri/2009/osb" xmlns:rdf="http://www.w3.org/1999/02/22-rdf-syntax-ns#" xmlns:svg="http://www.w3.org/2000/svg"
	 xmlns="http://www.w3.org/2000/svg" xmlns:xlink="http://www.w3.org/1999/xlink" x="0px" y="0px" viewBox="0 0 1473.2 1045.5"
	 style="enable-background:new 0 0 1473.2 1045.5;" xml:space="preserve">
<style type="text/css">
	.st0{fill:#D71440;}
	.st1{fill:#FFCB05;}
</style>
<g id="layer1" transform="translate(-941.06198,-6.0533654)">
	<path id="path2075" class="st0" d="M1202.6,514.7c-17.6-0.5-35.7,8-47.2,25.1c-9.5,14.6-91.6,134.8-108.2,159.5c-3,4,0,5.5,3.5,5.5
		h58.3c5.5-0.5,7,0,11.1-5.5c7.5-11.6,61.9-100.6,73-117.7c2-3,5.5-5.5,9.5-5.5c4,0,7,2,9.5,5.5c10.6,16.6,65.3,106.1,72.9,117.7
		c4,5.5,5.6,5,11.2,5.5h58.3c4,0,6.5-1.5,3.5-5.5c-16.6-24.6-98.5-144.8-108.1-159.5C1238.3,522.7,1220.2,514.2,1202.6,514.7
		L1202.6,514.7z M1426.5,514.7v0.5h-53.8c-3.5,0-6-0.5-6,3.5v96.1c0,0-1,34.2,2.5,46.7c6.5,24.1,23.6,36.2,59.3,40.7
		c12.6,1.5,28.6,2,50.3,2H1582c3.5,0,6,0.5,6-3.5V664c0-3.5-3-3.5-6-3.5h-93.6c-55.8,0-55.8-6.5-55.8-54.8v-87.6
		C1432.5,514.7,1429.5,514.7,1426.5,514.7L1426.5,514.7z M1567.4,514.7c-4.5,0-5.5,1-5.5,4.5v35.7c0,3.5,1,4.5,5.5,4.5h57.8
		c3,0,3.5,0.5,3.5,3.5v139.5c0,1.5,1.5,2.5,3.5,2.5h57.9c2,0,3.5-1,3.5-2.5V563c0-3,1-3.5,4-3.5h57.4c4,0,5.5-1,5.5-4.5v-35.2
		c-0.5-4-1.5-5-6-5L1567.4,514.7z M1853.6,514.7c-44.2,0-72.9,25.1-72.9,60.3v69c0,35.7,28.6,60.3,72.9,60.3H2004c3,0,6.1,0,6.1-3.5
		V667c0-4-2.5-3.5-6-3.5h-140.4c-9.6,0-17.2-7.5-17.2-17.1c0-9.5,7.5-17.1,17.1-17.1h135.9c7,0,10.7-0.5,10.7-8.5v-45.7
		c0-35.8-28.6-60.4-73-60.4H1853.6z M2033.7,515.2c-4,0-4.5,3-3,5l74.9,86.5c0,0,2.5,2.5,2.5,3c0,1-2.5,3-2.5,3
		s-72.4,83.9-73.9,85.4c-3,3.5,0,6.5,2.5,6.5h69.4c3.5,0,5-2,6-3l55.9-64.3c1-1.5,2-2,4-2c2,0,3,0.5,4,2l55.9,64.3c1,1,2.5,3,6,3
		h69.4c2.5,0,5.5-3,2.5-6.5c-1-1.5-73.9-85.4-73.9-85.4s-2.5-2.5-2.5-3c0-1,2.5-3,2.5-3l74.9-86.5c2-2,1-5-3-5H2240
		c-4.5,0-6,1.5-7.5,3c0,0-53.3,58.8-58.8,64.3c-1.5,1.5-3,2.5-4,2.5c-1,0-2.5-1-4.1-2.5c-5.5-5.5-58.8-64.3-58.8-64.3
		c-1.5-1.5-3-3-7.5-3L2033.7,515.2z M1867.2,556.9h58.3c8,0,14.1,2.5,17.1,6.5c2.5,3,3.5,6,3.5,10.6c0,5-2,9.5-5.5,12.6
		c-3.5,3-8.5,4.5-14.6,4.5h-58.8c-6,0-11.2-1.5-14.7-4.5c-4-3-6-7-6-12.6c0-4,1-7.5,3.5-10.6
		C1852.6,559.4,1859.1,556.9,1867.2,556.9L1867.2,556.9z"/>
	<path id="path2077" class="st1" d="M1271.5,423.1c0,0,0,0.5-1,1c0,0-24.6,8-42.7,25.6c-17.6,17.6-25.6,42.7-25.6,42.7c0,1-1,1-1,1
		s-0.5,0-1-1c0,0-8-25.1-25.7-42.7c-17.6-17.6-42.7-25.6-42.7-25.6c-1,0-1-1-1-1s0-0.5,1-1c0,0,24.6-8,42.7-25.6
		c17.6-17.6,25.6-42.7,25.6-42.7c0-1,1-1,1-1s1,0,1,1c0,0,8,25.1,25.6,42.7c17.7,17.6,42.8,25.6,42.8,25.6
		C1271.5,422.6,1271.5,423.1,1271.5,423.1L1271.5,423.1z"/>
</g>
</svg>
